<?xml version="1.0" encoding="iso-8859-1"?>
<!-- Uploaded to: SVG Repo, www.svgrepo.com, Generator: SVG Repo Mixer Tools -->
<svg height="512px" width="512px" version="1.1" xmlns="http://www.w3.org/2000/svg"
	 viewBox="0 0 64 64" xml:space="preserve">
<g>
	<path style="fill:#010002;" d="M 33 7 C 30.369 7 27.823516 9.4785 28.728516 13.1875 C 29.336516 15.6795 27.880625 18.53575 27.140625 19.59375 C 25.539625 21.88175 25.167109 24.252734 24.287109 25.302734 C 23.678741 26.028346 23.046753 26.579542 22.455078 27.017578 C 21.764622 25.817384 20.483907 25 19 25 L 14 25 C 11.791 25 10 26.791 10 29 L 10 49 C 10 51.209 11.791 53 14 53 L 19 53 C 21.209 53 23 51.209 23 49 L 23 47.457031 C 24.744567 48.385435 25.349265 50 29.283203 50 L 42 50 C 46.143 50 47.877172 49.370375 49.076172 47.984375 C 50.276172 46.598375 50.664906 45.026625 50.753906 44.015625 C 51.551906 43.439625 52.565875 42.359078 53.171875 40.705078 C 53.854875 38.844078 53.676187 37.419844 53.367188 36.339844 C 54.190188 35.304844 55 33.92 55 32 C 55 30.008 54.24875 28.400031 53.34375 27.582031 C 53.37575 26.563031 53.264766 24.905828 52.259766 23.548828 C 51.053766 21.920828 49.306 21 47 21 L 39.650391 21 C 39.920391 19.547 40 17.419719 40 15.511719 C 40 10.706719 37.093 7 33 7 z M 33.679688 10.757812 C 35.218688 10.757813 36.455078 13.047766 36.455078 16.009766 C 36.455078 17.917766 35.47975 23.25275 35.21875 24.59375 L 45.939453 24.59375 C 47.876453 24.59375 48.675172 24.612797 49.451172 25.466797 C 50.290172 26.389797 49.995375 27.349578 49.859375 29.017578 C 50.812375 29.807578 51.379094 30.223203 51.371094 31.908203 C 51.362094 33.829203 50.423063 34.517875 49.664062 35.671875 C 50.131062 37.264875 50.30025 38.077734 49.78125 39.552734 C 49.19725 41.213734 48.058766 41.420094 47.259766 41.996094 C 47.185766 43.269094 47.508375 44.261672 46.734375 45.138672 C 45.940375 46.037672 45.096 46.275734 41 46.302734 L 29.283203 46.341797 C 26.169391 46.341797 25.341404 44.486831 23 43.607422 L 23 31.144531 C 24.570961 30.511056 26.324566 29.344258 27.851562 27.119141 C 28.652562 25.953141 28.937609 23.899797 29.724609 22.591797 C 30.390609 21.485797 32.742188 17.620844 32.742188 14.714844 C 32.742187 13.006844 31.706688 10.757812 33.679688 10.757812 z M 15 29 L 18 29 C 18.552 29 19 29.448 19 30 L 19 48 C 19 48.552 18.552 49 18 49 L 15 49 C 14.448 49 14 48.552 14 48 L 14 30 C 14 29.448 14.448 29 15 29 z"/>
</g>
</svg>